# xmcd
#
# Track frame offsets: 
#        182
#        15825
#        31542
#        52265
#        68162
#        83502
#        99612
#        119000
#        135255
#        149887
#        165705
#
# Disc length: 2504 seconds
#
# Revision: 3
# Processed by: cddbd v1.5.2PL0 Copyright (c) Steve Scherf et al.
# Submitted via: ExactAudioCopy v0.95b3
#
DISCID=8e09c60b
DTITLE=Johnny Winter - Johnny Winter And
DYEAR=1970
DGENRE=Rock
TTITLE0=Guess I'll Go Away
TTITLE1=Ain't That A Kindness
TTITLE2=No Time To Live
TTITLE3=Rock And Roll, Hoochie Koo
TTITLE4=Am I Here?
TTITLE5=Look Up
TTITLE6=Prodigal Son
TTITLE7=On The Limb
TTITLE8=Let The Music Play
TTITLE9=Nothing Left
TTITLE10=Funky Music
EXTD=
EXTT0=Johnny Winter
EXTT1=Mark Klingman
EXTT2=Steve Winwood, James Capaldi
EXTT3=Rick Derringer
EXTT4=Randy Z
EXTT5=Rick Derringer, Robyn Supraner
EXTT6=Johnny Winter
EXTT7=Rick Derringer
EXTT8=Allan Nicholls, Otis Stephen
EXTT9=Johnny Winter
EXTT10=Rick Derringer
PLAYORDER=
